<svg id="flat" height="512" viewBox="0 0 512 512" width="512" xmlns="http://www.w3.org/2000/svg"><path d="m192 44-19.90026-9.95014a19.41651 19.41651 0 0 0 -8.68333-2.04986 19.41638 19.41638 0 0 0 -19.41641 19.41639v18.64252a81.94105 81.94105 0 0 1 -24 57.94109h8.00006a55.99994 55.99994 0 0 0 55.99994-55.99994v-.00006z" fill="#b1712c"/><path d="m200 72 16-16h32v32a32 32 0 0 1 -32 32 32 32 0 0 1 -32-32v-16z" fill="#ffceb6"/><path d="m248 56a32 32 0 0 0 -32-32 32 32 0 0 0 -32 32v16h16l16-16z" fill="#c78640"/><path d="m288 341.08984a54.56555 54.56555 0 0 1 -4.2 20.98023l-35.8 85.92993-48 16 24-120s-17.21-12.91016-37.06-27.78c-9.18-6.88013-18.91-14.17993-27.78-20.82983a77.88518 77.88518 0 0 1 -31.16-62.38017v-.7a74.43829 74.43829 0 0 1 6.85-31.18018v-.00976l30.42-65.88006a40.002 40.002 0 0 1 36.32-23.24h54.41v48a29.92067 29.92067 0 0 1 -13.31 24.87988l-10.69 7.12012-24 40 34.48 37.92993 31.33008 34.46021a54.55861 54.55861 0 0 1 14.18992 36.6997z" fill="#ffceb6"/><path d="m200 464v24h80v-16l-32-24z" fill="#e0edff"/><path d="m256 112v48a29.92067 29.92067 0 0 1 -13.31 24.87988l-10.69 7.12012-24 40-73.15-30.87012v-.00976l30.42-65.88012a40.002 40.002 0 0 1 36.32-23.24z" fill="#ef5e3b"/><path d="m242.48 269.92993-55.54 46.29c-9.18-6.88013-18.91-14.17993-27.78-20.82983a77.88518 77.88518 0 0 1 -31.16-62.3801v-.7a74.43829 74.43829 0 0 1 6.85-31.18018l73.15 30.87018z" fill="#ffa100"/><path d="m224 112h112l24-24h8v24h24v32l-24 16h-144a24 24 0 0 1 -24-24 24 24 0 0 1 24-24z" fill="#ffceb6"/></svg>