<svg id="flat" height="512" viewBox="0 0 512 512" width="512" xmlns="http://www.w3.org/2000/svg"><path d="m488 296v16h-80v-24l-72-104-18.16016 12.97-65.07984 46.49-95.96 68.54h-52.8v-48l11.58008-28.94995a38.30761 38.30761 0 0 1 44.85986-22.94019l15.56006 3.89014 39.78-24.31006 68.42017-41.81006 21.35986-13.05981a60.14153 60.14153 0 0 1 86.31009 26.88993l48.12988 108.29z" fill="#ffceb6"/><path d="m252.76 243.46-95.96 68.54h-52.8v-48l11.58008-28.94995a38.30761 38.30761 0 0 1 44.85986-22.94019l15.56006 3.89014 39.78-24.31006z" fill="#548aff"/><path d="m44.882 310.23591-10.8322 21.6644a19.41651 19.41651 0 0 0 -2.0498 8.68328 19.41638 19.41638 0 0 0 19.41639 19.41641h18.64252a81.941 81.941 0 0 1 57.94109 24v-32a32 32 0 0 0 -32-32h-8z" fill="#b1712c"/><path d="m152 264h112l24-16 8 8-8 16h24v24a16 16 0 0 1 -16 16h-144a24 24 0 0 1 -24-24 24 24 0 0 1 24-24z" fill="#ffceb6"/><path d="m72 304-16-16v-32h32a32 32 0 0 1 32 32 32 32 0 0 1 -32 32h-16z" fill="#ffceb6"/><path d="m72 320h-16a32 32 0 0 1 -32-32 32 32 0 0 1 32-32v32l16 16z" fill="#c78640"/><path d="m317.84 196.97-65.08 46.49-36.98-51.77 68.42-41.81z" fill="#ffb401"/><path d="m440 272-32 16v24h80v-16z" fill="#e0edff"/></svg>