<svg id="flat" height="512" viewBox="0 0 512 512" width="512" xmlns="http://www.w3.org/2000/svg"><rect fill="#f78e00" height="168" rx="84" width="216" x="48" y="320"/><path d="m440 300v132l-40 24-24-136h-206.06006a81.93481 81.93481 0 0 1 -57.93994-24l16-24 24-192-16-24 8-16 16 8 8-24h16a15.99552 15.99552 0 0 1 16 16v176a44.793 44.793 0 0 1 37.31006 19.97l2.68994 4.03h140a59.99617 59.99617 0 0 1 60 60z" fill="#ffceb6"/><path d="m264 240v80h-94.06006a81.93481 81.93481 0 0 1 -57.93994-24l16-24 11-88h61v32a44.793 44.793 0 0 1 37.31006 19.97l2.68994 4.03z" fill="#ef5e3b"/><path d="m56 288-13.95016 27.90031a19.41651 19.41651 0 0 0 -2.04984 8.68328 19.41638 19.41638 0 0 0 19.41639 19.41641h18.64252a81.94105 81.94105 0 0 1 57.94109 24v-32a32 32 0 0 0 -32-32h-8z" fill="#b1712c"/><path d="m80 288-16-16v-32h32a32 32 0 0 1 32 32 32 32 0 0 1 -32 32h-16z" fill="#ffceb6"/><path d="m216 218.95v29.05a8 8 0 0 1 -16 0v-32a44.698 44.698 0 0 1 16 2.95z" fill="#e04f2b"/><path d="m400 456 40-24 48 24v24h-88z" fill="#e0edff"/><path d="m264 240h88v80h-88z" fill="#ffc431"/><path d="m80 304h-16a32 32 0 0 1 -32-32 32 32 0 0 1 32-32v32l16 16z" fill="#c78640"/></svg>